<?xml version="1.0" encoding="utf-8" standalone="no"?>
<!DOCTYPE svg PUBLIC "-//W3C//DTD SVG 1.1//EN"
  "http://www.w3.org/Graphics/SVG/1.1/DTD/svg11.dtd">
<svg xmlns:xlink="http://www.w3.org/1999/xlink" width="515.52pt" height="191.52pt" viewBox="0 0 515.52 191.52" xmlns="http://www.w3.org/2000/svg" version="1.1">
 <metadata>
  <rdf:RDF xmlns:dc="http://purl.org/dc/elements/1.1/" xmlns:cc="http://creativecommons.org/ns#" xmlns:rdf="http://www.w3.org/1999/02/22-rdf-syntax-ns#">
   <cc:Work>
    <dc:type rdf:resource="http://purl.org/dc/dcmitype/StillImage"/>
    <dc:date>2026-05-24T22:02:46.912374</dc:date>
    <dc:format>image/svg+xml</dc:format>
    <dc:creator>
     <cc:Agent>
      <dc:title>Matplotlib v3.10.9, https://matplotlib.org/</dc:title>
     </cc:Agent>
    </dc:creator>
   </cc:Work>
  </rdf:RDF>
 </metadata>
 <defs>
  <style type="text/css">*{stroke-linejoin: round; stroke-linecap: butt}</style>
 </defs>
 <g id="figure_1">
  <g id="patch_1">
   <path d="M 0 191.52 
L 515.52 191.52 
L 515.52 0 
L 0 0 
z
" style="fill: #ffffff"/>
  </g>
  <g id="axes_1">
   <g id="patch_2">
    <path d="M 33.5088 138.143318 
L 167.746733 138.143318 
L 167.746733 49.546282 
L 33.5088 49.546282 
z
" style="fill: #ffffff"/>
   </g>
   <g id="matplotlib.axis_1">
    <g id="xtick_1">
     <g id="line2d_1">
      <path d="M 42.031843 138.143318 
L 42.031843 49.546282 
" clip-path="url(#p65c62be61e)" style="fill: none; stroke: #d7dee5; stroke-opacity: 0.55; stroke-width: 0.45; stroke-linecap: square"/>
     </g>
     <g id="line2d_2">
      <defs>
       <path id="m3ed5c44956" d="M 0 0 
L 0 3 
" style="stroke: #000000; stroke-width: 0.75"/>
      </defs>
      <g>
       <use xlink:href="#m3ed5c44956" x="42.031843" y="138.143318" style="stroke: #000000; stroke-width: 0.75"/>
      </g>
     </g>
     <g id="text_1">
      <text style="font-size: 7.2px; font-family: 'Arial', 'Helvetica', 'DejaVu Sans', sans-serif; text-anchor: middle" x="42.031843" y="148.096943" transform="rotate(-0 42.031843 148.096943)">0</text>
     </g>
    </g>
    <g id="xtick_2">
     <g id="line2d_3">
      <path d="M 81.391243 138.143318 
L 81.391243 49.546282 
" clip-path="url(#p65c62be61e)" style="fill: none; stroke: #d7dee5; stroke-opacity: 0.55; stroke-width: 0.45; stroke-linecap: square"/>
     </g>
     <g id="line2d_4">
      <g>
       <use xlink:href="#m3ed5c44956" x="81.391243" y="138.143318" style="stroke: #000000; stroke-width: 0.75"/>
      </g>
     </g>
     <g id="text_2">
      <text style="font-size: 7.2px; font-family: 'Arial', 'Helvetica', 'DejaVu Sans', sans-serif; text-anchor: middle" x="81.391243" y="148.096943" transform="rotate(-0 81.391243 148.096943)">30</text>
     </g>
    </g>
    <g id="xtick_3">
     <g id="line2d_5">
      <path d="M 120.750642 138.143318 
L 120.750642 49.546282 
" clip-path="url(#p65c62be61e)" style="fill: none; stroke: #d7dee5; stroke-opacity: 0.55; stroke-width: 0.45; stroke-linecap: square"/>
     </g>
     <g id="line2d_6">
      <g>
       <use xlink:href="#m3ed5c44956" x="120.750642" y="138.143318" style="stroke: #000000; stroke-width: 0.75"/>
      </g>
     </g>
     <g id="text_3">
      <text style="font-size: 7.2px; font-family: 'Arial', 'Helvetica', 'DejaVu Sans', sans-serif; text-anchor: middle" x="120.750642" y="148.096943" transform="rotate(-0 120.750642 148.096943)">60</text>
     </g>
    </g>
    <g id="xtick_4">
     <g id="line2d_7">
      <path d="M 160.110042 138.143318 
L 160.110042 49.546282 
" clip-path="url(#p65c62be61e)" style="fill: none; stroke: #d7dee5; stroke-opacity: 0.55; stroke-width: 0.45; stroke-linecap: square"/>
     </g>
     <g id="line2d_8">
      <g>
       <use xlink:href="#m3ed5c44956" x="160.110042" y="138.143318" style="stroke: #000000; stroke-width: 0.75"/>
      </g>
     </g>
     <g id="text_4">
      <text style="font-size: 7.2px; font-family: 'Arial', 'Helvetica', 'DejaVu Sans', sans-serif; text-anchor: middle" x="160.110042" y="148.096943" transform="rotate(-0 160.110042 148.096943)">90</text>
     </g>
    </g>
    <g id="text_5">
     <text style="font-size: 8.5px; font-family: 'Arial', 'Helvetica', 'DejaVu Sans', sans-serif; text-anchor: middle" x="100.627766" y="158.215677" transform="rotate(-0 100.627766 158.215677)">X (m)</text>
    </g>
   </g>
   <g id="matplotlib.axis_2">
    <g id="ytick_1">
     <g id="line2d_9">
      <path d="M 33.5088 118.863641 
L 167.746733 118.863641 
" clip-path="url(#p65c62be61e)" style="fill: none; stroke: #d7dee5; stroke-opacity: 0.55; stroke-width: 0.45; stroke-linecap: square"/>
     </g>
     <g id="line2d_10">
      <defs>
       <path id="m010b013fc8" d="M 0 0 
L -3 0 
" style="stroke: #000000; stroke-width: 0.75"/>
      </defs>
      <g>
       <use xlink:href="#m010b013fc8" x="33.5088" y="118.863641" style="stroke: #000000; stroke-width: 0.75"/>
      </g>
     </g>
     <g id="text_6">
      <text style="font-size: 7.2px; font-family: 'Arial', 'Helvetica', 'DejaVu Sans', sans-serif; text-anchor: end" x="28.7088" y="121.440453" transform="rotate(-0 28.7088 121.440453)">−40</text>
     </g>
    </g>
    <g id="ytick_2">
     <g id="line2d_11">
      <path d="M 33.5088 92.624041 
L 167.746733 92.624041 
" clip-path="url(#p65c62be61e)" style="fill: none; stroke: #d7dee5; stroke-opacity: 0.55; stroke-width: 0.45; stroke-linecap: square"/>
     </g>
     <g id="line2d_12">
      <g>
       <use xlink:href="#m010b013fc8" x="33.5088" y="92.624041" style="stroke: #000000; stroke-width: 0.75"/>
      </g>
     </g>
     <g id="text_7">
      <text style="font-size: 7.2px; font-family: 'Arial', 'Helvetica', 'DejaVu Sans', sans-serif; text-anchor: end" x="28.7088" y="95.200854" transform="rotate(-0 28.7088 95.200854)">−20</text>
     </g>
    </g>
    <g id="ytick_3">
     <g id="line2d_13">
      <path d="M 33.5088 66.384441 
L 167.746733 66.384441 
" clip-path="url(#p65c62be61e)" style="fill: none; stroke: #d7dee5; stroke-opacity: 0.55; stroke-width: 0.45; stroke-linecap: square"/>
     </g>
     <g id="line2d_14">
      <g>
       <use xlink:href="#m010b013fc8" x="33.5088" y="66.384441" style="stroke: #000000; stroke-width: 0.75"/>
      </g>
     </g>
     <g id="text_8">
      <text style="font-size: 7.2px; font-family: 'Arial', 'Helvetica', 'DejaVu Sans', sans-serif; text-anchor: end" x="28.7088" y="68.961254" transform="rotate(-0 28.7088 68.961254)">0</text>
     </g>
    </g>
    <g id="text_9">
     <text style="font-size: 8.5px; font-family: 'Arial', 'Helvetica', 'DejaVu Sans', sans-serif; text-anchor: middle" x="12.206816" y="93.8448" transform="rotate(-90 12.206816 93.8448)">Y (m)</text>
    </g>
   </g>
   <g id="patch_3">
    <path d="M 33.5088 138.143318 
L 33.5088 49.546282 
" style="fill: none; stroke: #000000; stroke-width: 0.8; stroke-linejoin: miter; stroke-linecap: square"/>
   </g>
   <g id="patch_4">
    <path d="M 33.5088 138.143318 
L 167.746733 138.143318 
" style="fill: none; stroke: #000000; stroke-width: 0.8; stroke-linejoin: miter; stroke-linecap: square"/>
   </g>
   <g id="line2d_15">
    <path d="M 42.031843 66.384441 
L 62.255175 66.495088 
L 63.83048 66.797331 
L 65.348393 67.315856 
L 66.779352 68.04062 
L 68.095496 68.957513 
L 69.271198 70.048683 
L 70.28317 71.292338 
L 71.103732 72.65014 
L 71.719539 74.094477 
L 72.117478 75.589119 
L 72.29397 77.115485 
L 72.25103 78.733886 
L 71.778991 83.149962 
L 69.028151 109.255513 
L 69.130474 110.996142 
L 69.451003 112.629978 
L 69.985414 114.205418 
L 70.722173 115.689771 
L 71.642566 117.046616 
L 72.718916 118.240871 
L 73.934363 119.258586 
L 75.26321 120.080892 
L 76.680129 120.696805 
L 78.170182 121.10306 
L 79.703084 121.291513 
L 81.247169 121.258272 
L 82.77054 121.004022 
L 84.241729 120.534017 
L 85.630345 119.857964 
L 86.907704 118.98983 
L 88.047419 117.947548 
L 89.025947 116.752648 
L 89.823073 115.429813 
L 90.422332 114.006369 
L 90.811344 112.511722 
L 90.982075 110.976745 
L 90.930996 109.433147 
L 90.658547 107.909969 
L 90.170194 106.436259 
L 89.309191 104.624661 
L 79.844716 85.961082 
L 79.419031 84.42082 
L 79.223366 82.87042 
L 79.252172 81.325808 
L 79.50216 79.820916 
L 79.964234 78.392946 
L 80.626753 77.068051 
L 81.468115 75.878728 
L 82.485553 74.825617 
L 83.651559 73.939812 
L 84.938909 73.241994 
L 86.317547 72.748456 
L 87.755282 72.47072 
L 89.218548 72.415273 
L 90.673179 72.583407 
L 92.085213 72.971198 
L 93.421681 73.569591 
L 94.739277 74.411903 
L 98.094215 76.973084 
L 148.569885 115.744664 
L 148.569885 115.744664 
" clip-path="url(#p65c62be61e)" style="fill: none; stroke: #111111; stroke-width: 1.22; stroke-linecap: round"/>
   </g>
   <g id="text_10">
    <text style="font-weight: 700; font-size: 8.1px; font-family: 'Arial', 'Helvetica', 'DejaVu Sans', sans-serif; text-anchor: start; fill: #1a1a1a" x="33.5088" y="42.968648" transform="rotate(-0 33.5088 42.968648)">(a) Factory logistics showcase</text>
   </g>
   <g id="patch_5">
    <path d="M 68.291092 69.118724 
Q 70.029076 71.677122 71.107392 73.264457 
" style="fill: none; stroke: #1565c0; stroke-width: 1.05; stroke-linecap: round"/>
    <path d="M 70.603053 69.496747 
L 71.107392 73.264457 
L 67.79062 71.407302 
z
" style="fill: #1565c0; stroke: #1565c0; stroke-width: 1.05; stroke-linecap: round"/>
   </g>
   <g id="patch_6">
    <path d="M 71.284742 116.565412 
Q 73.687648 118.517618 75.179417 119.729585 
" style="fill: none; stroke: #1565c0; stroke-width: 1.05; stroke-linecap: round"/>
    <path d="M 73.612503 116.266237 
L 75.179417 119.729585 
L 71.46859 118.905108 
z
" style="fill: #1565c0; stroke: #1565c0; stroke-width: 1.05; stroke-linecap: round"/>
   </g>
   <g id="patch_7">
    <path d="M 80.136096 86.712532 
Q 79.742293 83.643593 79.497903 81.739043 
" style="fill: none; stroke: #1565c0; stroke-width: 1.05; stroke-linecap: round"/>
    <path d="M 78.244465 85.32776 
L 79.497903 81.739043 
L 81.616814 84.895024 
z
" style="fill: #1565c0; stroke: #1565c0; stroke-width: 1.05; stroke-linecap: round"/>
   </g>
   <g id="patch_8">
    <path d="M 116.591463 91.181266 
Q 119.079418 93.092324 120.636386 94.288269 
" style="fill: none; stroke: #1565c0; stroke-width: 1.05; stroke-linecap: round"/>
    <path d="M 118.975593 90.868946 
L 120.636386 94.288269 
L 116.904452 93.565309 
z
" style="fill: #1565c0; stroke: #1565c0; stroke-width: 1.05; stroke-linecap: round"/>
   </g>
   <g id="PathCollection_1">
    <defs>
     <path id="mae5fb7e25b" d="M 0 2.828427 
C 0.750108 2.828427 1.469594 2.530406 2 2 
C 2.530406 1.469594 2.828427 0.750108 2.828427 0 
C 2.828427 -0.750108 2.530406 -1.469594 2 -2 
C 1.469594 -2.530406 0.750108 -2.828427 0 -2.828427 
C -0.750108 -2.828427 -1.469594 -2.530406 -2 -2 
C -2.530406 -1.469594 -2.828427 -0.750108 -2.828427 0 
C -2.828427 0.750108 -2.530406 1.469594 -2 2 
C -1.469594 2.530406 -0.750108 2.828427 0 2.828427 
z
" style="stroke: #ffffff; stroke-width: 0.55"/>
    </defs>
    <g clip-path="url(#p65c62be61e)">
     <use xlink:href="#mae5fb7e25b" x="42.031843" y="66.384441" style="fill: #2e7d72; stroke: #ffffff; stroke-width: 0.55"/>
    </g>
   </g>
   <g id="PathCollection_2">
    <defs>
     <path id="mf9e3af2cf7" d="M -2.915476 2.915476 
L 2.915476 2.915476 
L 2.915476 -2.915476 
L -2.915476 -2.915476 
z
" style="stroke: #ffffff; stroke-width: 0.55"/>
    </defs>
    <g clip-path="url(#p65c62be61e)">
     <use xlink:href="#mf9e3af2cf7" x="148.569885" y="115.744664" style="fill: #c62828; stroke: #ffffff; stroke-width: 0.55"/>
    </g>
   </g>
  </g>
  <g id="axes_2">
   <g id="patch_9">
    <path d="M 205.333354 138.143318 
L 339.571286 138.143318 
L 339.571286 49.546282 
L 205.333354 49.546282 
z
" style="fill: #ffffff"/>
   </g>
   <g id="matplotlib.axis_3">
    <g id="xtick_5">
     <g id="line2d_16">
      <path d="M 214.591142 138.143318 
L 214.591142 49.546282 
" clip-path="url(#p49caf0ef3b)" style="fill: none; stroke: #d7dee5; stroke-opacity: 0.55; stroke-width: 0.45; stroke-linecap: square"/>
     </g>
     <g id="line2d_17">
      <g>
       <use xlink:href="#m3ed5c44956" x="214.591142" y="138.143318" style="stroke: #000000; stroke-width: 0.75"/>
      </g>
     </g>
     <g id="text_11">
      <text style="font-size: 7.2px; font-family: 'Arial', 'Helvetica', 'DejaVu Sans', sans-serif; text-anchor: middle" x="214.591142" y="148.096943" transform="rotate(-0 214.591142 148.096943)">0</text>
     </g>
    </g>
    <g id="xtick_6">
     <g id="line2d_18">
      <path d="M 261.022021 138.143318 
L 261.022021 49.546282 
" clip-path="url(#p49caf0ef3b)" style="fill: none; stroke: #d7dee5; stroke-opacity: 0.55; stroke-width: 0.45; stroke-linecap: square"/>
     </g>
     <g id="line2d_19">
      <g>
       <use xlink:href="#m3ed5c44956" x="261.022021" y="138.143318" style="stroke: #000000; stroke-width: 0.75"/>
      </g>
     </g>
     <g id="text_12">
      <text style="font-size: 7.2px; font-family: 'Arial', 'Helvetica', 'DejaVu Sans', sans-serif; text-anchor: middle" x="261.022021" y="148.096943" transform="rotate(-0 261.022021 148.096943)">15</text>
     </g>
    </g>
    <g id="xtick_7">
     <g id="line2d_20">
      <path d="M 307.4529 138.143318 
L 307.4529 49.546282 
" clip-path="url(#p49caf0ef3b)" style="fill: none; stroke: #d7dee5; stroke-opacity: 0.55; stroke-width: 0.45; stroke-linecap: square"/>
     </g>
     <g id="line2d_21">
      <g>
       <use xlink:href="#m3ed5c44956" x="307.4529" y="138.143318" style="stroke: #000000; stroke-width: 0.75"/>
      </g>
     </g>
     <g id="text_13">
      <text style="font-size: 7.2px; font-family: 'Arial', 'Helvetica', 'DejaVu Sans', sans-serif; text-anchor: middle" x="307.4529" y="148.096943" transform="rotate(-0 307.4529 148.096943)">30</text>
     </g>
    </g>
    <g id="text_14">
     <text style="font-size: 8.5px; font-family: 'Arial', 'Helvetica', 'DejaVu Sans', sans-serif; text-anchor: middle" x="272.45232" y="158.215677" transform="rotate(-0 272.45232 158.215677)">X (m)</text>
    </g>
   </g>
   <g id="matplotlib.axis_4">
    <g id="ytick_4">
     <g id="line2d_22">
      <path d="M 205.333354 128.045577 
L 339.571286 128.045577 
" clip-path="url(#p49caf0ef3b)" style="fill: none; stroke: #d7dee5; stroke-opacity: 0.55; stroke-width: 0.45; stroke-linecap: square"/>
     </g>
     <g id="line2d_23">
      <g>
       <use xlink:href="#m010b013fc8" x="205.333354" y="128.045577" style="stroke: #000000; stroke-width: 0.75"/>
      </g>
     </g>
     <g id="text_15">
      <text style="font-size: 7.2px; font-family: 'Arial', 'Helvetica', 'DejaVu Sans', sans-serif; text-anchor: end" x="200.533354" y="130.62239" transform="rotate(-0 200.533354 130.62239)">−8</text>
     </g>
    </g>
    <g id="ytick_5">
     <g id="line2d_24">
      <path d="M 205.333354 103.282442 
L 339.571286 103.282442 
" clip-path="url(#p49caf0ef3b)" style="fill: none; stroke: #d7dee5; stroke-opacity: 0.55; stroke-width: 0.45; stroke-linecap: square"/>
     </g>
     <g id="line2d_25">
      <g>
       <use xlink:href="#m010b013fc8" x="205.333354" y="103.282442" style="stroke: #000000; stroke-width: 0.75"/>
      </g>
     </g>
     <g id="text_16">
      <text style="font-size: 7.2px; font-family: 'Arial', 'Helvetica', 'DejaVu Sans', sans-serif; text-anchor: end" x="200.533354" y="105.859254" transform="rotate(-0 200.533354 105.859254)">0</text>
     </g>
    </g>
    <g id="ytick_6">
     <g id="line2d_26">
      <path d="M 205.333354 78.519306 
L 339.571286 78.519306 
" clip-path="url(#p49caf0ef3b)" style="fill: none; stroke: #d7dee5; stroke-opacity: 0.55; stroke-width: 0.45; stroke-linecap: square"/>
     </g>
     <g id="line2d_27">
      <g>
       <use xlink:href="#m010b013fc8" x="205.333354" y="78.519306" style="stroke: #000000; stroke-width: 0.75"/>
      </g>
     </g>
     <g id="text_17">
      <text style="font-size: 7.2px; font-family: 'Arial', 'Helvetica', 'DejaVu Sans', sans-serif; text-anchor: end" x="200.533354" y="81.096119" transform="rotate(-0 200.533354 81.096119)">8</text>
     </g>
    </g>
    <g id="ytick_7">
     <g id="line2d_28">
      <path d="M 205.333354 53.75617 
L 339.571286 53.75617 
" clip-path="url(#p49caf0ef3b)" style="fill: none; stroke: #d7dee5; stroke-opacity: 0.55; stroke-width: 0.45; stroke-linecap: square"/>
     </g>
     <g id="line2d_29">
      <g>
       <use xlink:href="#m010b013fc8" x="205.333354" y="53.75617" style="stroke: #000000; stroke-width: 0.75"/>
      </g>
     </g>
     <g id="text_18">
      <text style="font-size: 7.2px; font-family: 'Arial', 'Helvetica', 'DejaVu Sans', sans-serif; text-anchor: end" x="200.533354" y="56.332983" transform="rotate(-0 200.533354 56.332983)">16</text>
     </g>
    </g>
    <g id="text_19">
     <text style="font-size: 8.5px; font-family: 'Arial', 'Helvetica', 'DejaVu Sans', sans-serif; text-anchor: middle" x="188.035244" y="93.8448" transform="rotate(-90 188.035244 93.8448)">Y (m)</text>
    </g>
   </g>
   <g id="patch_10">
    <path d="M 205.333354 138.143318 
L 205.333354 49.546282 
" style="fill: none; stroke: #000000; stroke-width: 0.8; stroke-linejoin: miter; stroke-linecap: square"/>
   </g>
   <g id="patch_11">
    <path d="M 205.333354 138.143318 
L 339.571286 138.143318 
" style="fill: none; stroke: #000000; stroke-width: 0.8; stroke-linejoin: miter; stroke-linecap: square"/>
   </g>
   <g id="line2d_30">
    <path d="M 214.591142 103.282442 
L 242.518078 103.172443 
L 245.019558 102.856722 
L 247.483983 102.324101 
L 249.892585 101.578638 
L 252.59441 100.493292 
L 278.382459 89.589525 
L 280.79825 88.926134 
L 283.262996 88.477626 
L 285.757622 88.24747 
L 288.348099 88.233754 
L 296.428475 88.5888 
L 311.057126 89.136896 
L 313.684135 88.936528 
L 316.285007 88.516067 
L 318.897138 87.866406 
L 326.395198 85.597797 
L 330.313498 84.407158 
L 330.313498 84.407158 
" clip-path="url(#p49caf0ef3b)" style="fill: none; stroke: #111111; stroke-width: 1.22; stroke-linecap: round"/>
   </g>
   <g id="text_20">
    <text style="font-weight: 700; font-size: 8.1px; font-family: 'Arial', 'Helvetica', 'DejaVu Sans', sans-serif; text-anchor: start; fill: #1a1a1a" x="205.333354" y="42.968648" transform="rotate(-0 205.333354 42.968648)">(b) Long up/down slope</text>
   </g>
   <g id="patch_12">
    <path d="M 236.046542 103.282442 
Q 237.710624 103.281973 238.200771 103.281835 
" style="fill: none; stroke: #1565c0; stroke-width: 1.05; stroke-linecap: round"/>
    <path d="M 234.800292 101.582793 
L 238.200771 103.281835 
L 234.80125 104.982793 
z
" style="fill: #1565c0; stroke: #1565c0; stroke-width: 1.05; stroke-linecap: round"/>
   </g>
   <g id="patch_13">
    <path d="M 272.049622 92.153091 
Q 273.581016 91.497204 274.033284 91.303501 
" style="fill: none; stroke: #1565c0; stroke-width: 1.05; stroke-linecap: round"/>
    <path d="M 270.238581 91.07939 
L 274.033284 91.303501 
L 271.577174 94.204797 
z
" style="fill: #1565c0; stroke: #1565c0; stroke-width: 1.05; stroke-linecap: round"/>
   </g>
   <g id="patch_14">
    <path d="M 304.752216 88.963621 
Q 306.414351 89.037415 306.903705 89.059141 
" style="fill: none; stroke: #1565c0; stroke-width: 1.05; stroke-linecap: round"/>
    <path d="M 303.582452 87.210012 
L 306.903705 89.059141 
L 303.43165 90.606666 
z
" style="fill: #1565c0; stroke: #1565c0; stroke-width: 1.05; stroke-linecap: round"/>
   </g>
   <g id="PathCollection_3">
    <g clip-path="url(#p49caf0ef3b)">
     <use xlink:href="#mae5fb7e25b" x="214.591142" y="103.282442" style="fill: #2e7d72; stroke: #ffffff; stroke-width: 0.55"/>
    </g>
   </g>
   <g id="PathCollection_4">
    <g clip-path="url(#p49caf0ef3b)">
     <use xlink:href="#mf9e3af2cf7" x="330.313498" y="84.407158" style="fill: #c62828; stroke: #ffffff; stroke-width: 0.55"/>
    </g>
   </g>
  </g>
  <g id="axes_3">
   <g id="patch_15">
    <path d="M 377.157907 138.143318 
L 511.39584 138.143318 
L 511.39584 49.546282 
L 377.157907 49.546282 
z
" style="fill: #ffffff"/>
   </g>
   <g id="matplotlib.axis_5">
    <g id="xtick_8">
     <g id="line2d_31">
      <path d="M 386.415696 138.143318 
L 386.415696 49.546282 
" clip-path="url(#p95be87e233)" style="fill: none; stroke: #d7dee5; stroke-opacity: 0.55; stroke-width: 0.45; stroke-linecap: square"/>
     </g>
     <g id="line2d_32">
      <g>
       <use xlink:href="#m3ed5c44956" x="386.415696" y="138.143318" style="stroke: #000000; stroke-width: 0.75"/>
      </g>
     </g>
     <g id="text_21">
      <text style="font-size: 7.2px; font-family: 'Arial', 'Helvetica', 'DejaVu Sans', sans-serif; text-anchor: middle" x="386.415696" y="148.096943" transform="rotate(-0 386.415696 148.096943)">0</text>
     </g>
    </g>
    <g id="xtick_9">
     <g id="line2d_33">
      <path d="M 431.726962 138.143318 
L 431.726962 49.546282 
" clip-path="url(#p95be87e233)" style="fill: none; stroke: #d7dee5; stroke-opacity: 0.55; stroke-width: 0.45; stroke-linecap: square"/>
     </g>
     <g id="line2d_34">
      <g>
       <use xlink:href="#m3ed5c44956" x="431.726962" y="138.143318" style="stroke: #000000; stroke-width: 0.75"/>
      </g>
     </g>
     <g id="text_22">
      <text style="font-size: 7.2px; font-family: 'Arial', 'Helvetica', 'DejaVu Sans', sans-serif; text-anchor: middle" x="431.726962" y="148.096943" transform="rotate(-0 431.726962 148.096943)">15</text>
     </g>
    </g>
    <g id="xtick_10">
     <g id="line2d_35">
      <path d="M 477.038229 138.143318 
L 477.038229 49.546282 
" clip-path="url(#p95be87e233)" style="fill: none; stroke: #d7dee5; stroke-opacity: 0.55; stroke-width: 0.45; stroke-linecap: square"/>
     </g>
     <g id="line2d_36">
      <g>
       <use xlink:href="#m3ed5c44956" x="477.038229" y="138.143318" style="stroke: #000000; stroke-width: 0.75"/>
      </g>
     </g>
     <g id="text_23">
      <text style="font-size: 7.2px; font-family: 'Arial', 'Helvetica', 'DejaVu Sans', sans-serif; text-anchor: middle" x="477.038229" y="148.096943" transform="rotate(-0 477.038229 148.096943)">30</text>
     </g>
    </g>
    <g id="text_24">
     <text style="font-size: 8.5px; font-family: 'Arial', 'Helvetica', 'DejaVu Sans', sans-serif; text-anchor: middle" x="444.276874" y="158.215677" transform="rotate(-0 444.276874 158.215677)">X (m)</text>
    </g>
   </g>
   <g id="matplotlib.axis_6">
    <g id="ytick_8">
     <g id="line2d_37">
      <path d="M 377.157907 117.748485 
L 511.39584 117.748485 
" clip-path="url(#p95be87e233)" style="fill: none; stroke: #d7dee5; stroke-opacity: 0.55; stroke-width: 0.45; stroke-linecap: square"/>
     </g>
     <g id="line2d_38">
      <g>
       <use xlink:href="#m010b013fc8" x="377.157907" y="117.748485" style="stroke: #000000; stroke-width: 0.75"/>
      </g>
     </g>
     <g id="text_25">
      <text style="font-size: 7.2px; font-family: 'Arial', 'Helvetica', 'DejaVu Sans', sans-serif; text-anchor: end" x="372.357907" y="120.325298" transform="rotate(-0 372.357907 120.325298)">0</text>
     </g>
    </g>
    <g id="ytick_9">
     <g id="line2d_39">
      <path d="M 377.157907 93.582477 
L 511.39584 93.582477 
" clip-path="url(#p95be87e233)" style="fill: none; stroke: #d7dee5; stroke-opacity: 0.55; stroke-width: 0.45; stroke-linecap: square"/>
     </g>
     <g id="line2d_40">
      <g>
       <use xlink:href="#m010b013fc8" x="377.157907" y="93.582477" style="stroke: #000000; stroke-width: 0.75"/>
      </g>
     </g>
     <g id="text_26">
      <text style="font-size: 7.2px; font-family: 'Arial', 'Helvetica', 'DejaVu Sans', sans-serif; text-anchor: end" x="372.357907" y="96.159289" transform="rotate(-0 372.357907 96.159289)">8</text>
     </g>
    </g>
    <g id="ytick_10">
     <g id="line2d_41">
      <path d="M 377.157907 69.416468 
L 511.39584 69.416468 
" clip-path="url(#p95be87e233)" style="fill: none; stroke: #d7dee5; stroke-opacity: 0.55; stroke-width: 0.45; stroke-linecap: square"/>
     </g>
     <g id="line2d_42">
      <g>
       <use xlink:href="#m010b013fc8" x="377.157907" y="69.416468" style="stroke: #000000; stroke-width: 0.75"/>
      </g>
     </g>
     <g id="text_27">
      <text style="font-size: 7.2px; font-family: 'Arial', 'Helvetica', 'DejaVu Sans', sans-serif; text-anchor: end" x="372.357907" y="71.99328" transform="rotate(-0 372.357907 71.99328)">16</text>
     </g>
    </g>
    <g id="text_28">
     <text style="font-size: 8.5px; font-family: 'Arial', 'Helvetica', 'DejaVu Sans', sans-serif; text-anchor: middle" x="360.061173" y="93.8448" transform="rotate(-90 360.061173 93.8448)">Y (m)</text>
    </g>
   </g>
   <g id="patch_16">
    <path d="M 377.157907 138.143318 
L 377.157907 49.546282 
" style="fill: none; stroke: #000000; stroke-width: 0.8; stroke-linejoin: miter; stroke-linecap: square"/>
   </g>
   <g id="patch_17">
    <path d="M 377.157907 138.143318 
L 511.39584 138.143318 
" style="fill: none; stroke: #000000; stroke-width: 0.8; stroke-linejoin: miter; stroke-linecap: square"/>
   </g>
   <g id="line2d_43">
    <path d="M 386.415696 117.748485 
L 418.118671 117.638346 
L 420.351508 117.336265 
L 422.543935 116.816582 
L 424.674791 116.084282 
L 426.724296 115.146035 
L 428.689987 114.000321 
L 430.55264 112.655001 
L 432.296327 111.119056 
L 434.043192 109.268634 
L 439.12607 103.332098 
L 455.986893 83.756491 
L 457.720876 82.187612 
L 459.595081 80.790861 
L 461.580473 79.585905 
L 463.667339 78.577983 
L 465.833781 77.779132 
L 468.045725 77.200167 
L 470.299805 76.839272 
L 472.679422 76.687731 
L 477.931771 76.669465 
L 485.135368 76.559011 
L 487.525377 76.251663 
L 489.877784 75.723134 
L 492.157845 74.983572 
L 494.401509 74.020554 
L 497.622487 72.349663 
L 502.138052 69.941115 
L 502.138052 69.941115 
" clip-path="url(#p95be87e233)" style="fill: none; stroke: #111111; stroke-width: 1.22; stroke-linecap: round"/>
   </g>
   <g id="text_29">
    <text style="font-weight: 700; font-size: 8.1px; font-family: 'Arial', 'Helvetica', 'DejaVu Sans', sans-serif; text-anchor: start; fill: #1a1a1a" x="377.157907" y="42.968648" transform="rotate(-0 377.157907 42.968648)">(c) Sharp turn transition</text>
   </g>
   <g id="patch_18">
    <path d="M 409.080391 117.748485 
Q 410.950538 117.748485 411.64675 117.748485 
" style="fill: none; stroke: #1565c0; stroke-width: 1.05; stroke-linecap: round"/>
    <path d="M 408.24675 116.048485 
L 411.64675 117.748485 
L 408.24675 119.448485 
z
" style="fill: #1565c0; stroke: #1565c0; stroke-width: 1.05; stroke-linecap: round"/>
   </g>
   <g id="patch_19">
    <path d="M 443.027456 98.763588 
Q 444.23585 97.348563 444.681889 96.826253 
" style="fill: none; stroke: #1565c0; stroke-width: 1.05; stroke-linecap: round"/>
    <path d="M 441.181167 98.307789 
L 444.681889 96.826253 
L 443.766684 100.515752 
z
" style="fill: #1565c0; stroke: #1565c0; stroke-width: 1.05; stroke-linecap: round"/>
   </g>
   <g id="patch_20">
    <path d="M 472.907734 76.682658 
Q 474.772708 76.676061 475.463753 76.673617 
" style="fill: none; stroke: #1565c0; stroke-width: 1.05; stroke-linecap: round"/>
    <path d="M 472.057761 74.985654 
L 475.463753 76.673617 
L 472.069788 78.385633 
z
" style="fill: #1565c0; stroke: #1565c0; stroke-width: 1.05; stroke-linecap: round"/>
   </g>
   <g id="PathCollection_5">
    <g clip-path="url(#p95be87e233)">
     <use xlink:href="#mae5fb7e25b" x="386.415696" y="117.748485" style="fill: #2e7d72; stroke: #ffffff; stroke-width: 0.55"/>
    </g>
   </g>
   <g id="PathCollection_6">
    <g clip-path="url(#p95be87e233)">
     <use xlink:href="#mf9e3af2cf7" x="502.138052" y="69.941115" style="fill: #c62828; stroke: #ffffff; stroke-width: 0.55"/>
    </g>
   </g>
  </g>
  <g id="legend_1">
   <g id="line2d_44">
    <path d="M 158.373125 15.648981 
L 163.553125 15.648981 
L 168.733125 15.648981 
" style="fill: none; stroke: #111111; stroke-width: 1.22; stroke-linecap: square"/>
   </g>
   <g id="text_30">
    <text style="font-size: 7px; font-family: 'Arial', 'Helvetica', 'DejaVu Sans', sans-serif; text-anchor: start" x="171.883125" y="18.098981" transform="rotate(-0 171.883125 18.098981)">Reference path</text>
   </g>
   <g id="line2d_45">
    <defs>
     <path id="m70132d0822" d="M 0 2.9 
C 0.769089 2.9 1.506782 2.594438 2.05061 2.05061 
C 2.594438 1.506782 2.9 0.769089 2.9 0 
C 2.9 -0.769089 2.594438 -1.506782 2.05061 -2.05061 
C 1.506782 -2.594438 0.769089 -2.9 0 -2.9 
C -0.769089 -2.9 -1.506782 -2.594438 -2.05061 -2.05061 
C -2.594438 -1.506782 -2.9 -0.769089 -2.9 0 
C -2.9 0.769089 -2.594438 1.506782 -2.05061 2.05061 
C -1.506782 2.594438 -0.769089 2.9 0 2.9 
z
" style="stroke: #ffffff; stroke-width: 0.55"/>
    </defs>
    <g>
     <use xlink:href="#m70132d0822" x="232.274531" y="15.648981" style="fill: #2e7d72; stroke: #ffffff; stroke-width: 0.55"/>
    </g>
   </g>
   <g id="text_31">
    <text style="font-size: 7px; font-family: 'Arial', 'Helvetica', 'DejaVu Sans', sans-serif; text-anchor: start" x="240.604531" y="18.098981" transform="rotate(-0 240.604531 18.098981)">Start</text>
   </g>
   <g id="line2d_46">
    <defs>
     <path id="m485020600f" d="M -2.9 2.9 
L 2.9 2.9 
L 2.9 -2.9 
L -2.9 -2.9 
z
" style="stroke: #ffffff; stroke-width: 0.55; stroke-linejoin: miter"/>
    </defs>
    <g>
     <use xlink:href="#m485020600f" x="267.916562" y="15.648981" style="fill: #c62828; stroke: #ffffff; stroke-width: 0.55; stroke-linejoin: miter"/>
    </g>
   </g>
   <g id="text_32">
    <text style="font-size: 7px; font-family: 'Arial', 'Helvetica', 'DejaVu Sans', sans-serif; text-anchor: start" x="276.246562" y="18.098981" transform="rotate(-0 276.246562 18.098981)">End</text>
   </g>
   <g id="line2d_47">
    <path d="M 296.051094 15.648981 
L 301.231094 15.648981 
L 306.411094 15.648981 
" style="fill: none; stroke: #1565c0; stroke-width: 1.05; stroke-linecap: square"/>
    <defs>
     <path id="m84aa92c2b5" d="M 2.5 0 
L -2.5 -2.5 
L -2.5 2.5 
z
" style="stroke: #1565c0; stroke-linejoin: miter"/>
    </defs>
    <g>
     <use xlink:href="#m84aa92c2b5" x="301.231094" y="15.648981" style="fill: #1565c0; stroke: #1565c0; stroke-linejoin: miter"/>
    </g>
   </g>
   <g id="text_33">
    <text style="font-size: 7px; font-family: 'Arial', 'Helvetica', 'DejaVu Sans', sans-serif; text-anchor: start" x="309.561094" y="18.098981" transform="rotate(-0 309.561094 18.098981)">Travel direction</text>
   </g>
  </g>
 </g>
 <defs>
  <clipPath id="p65c62be61e">
   <rect x="33.5088" y="49.546282" width="134.237933" height="88.597036"/>
  </clipPath>
  <clipPath id="p49caf0ef3b">
   <rect x="205.333354" y="49.546282" width="134.237933" height="88.597036"/>
  </clipPath>
  <clipPath id="p95be87e233">
   <rect x="377.157907" y="49.546282" width="134.237933" height="88.597036"/>
  </clipPath>
 </defs>
</svg>
